<?xml version="1.0" encoding="UTF-8" standalone="no"?>
<!-- Created with Inkscape (http://www.inkscape.org/) -->

<svg
   xmlns:dc="http://purl.org/dc/elements/1.1/"
   xmlns:cc="http://creativecommons.org/ns#"
   xmlns:rdf="http://www.w3.org/1999/02/22-rdf-syntax-ns#"
   xmlns:svg="http://www.w3.org/2000/svg"
   xmlns="http://www.w3.org/2000/svg"
   xmlns:sodipodi="http://sodipodi.sourceforge.net/DTD/sodipodi-0.dtd"
   xmlns:inkscape="http://www.inkscape.org/namespaces/inkscape"
   width="210mm"
   height="297mm"
   viewBox="0 0 744.09448819 1052.3622047"
   id="svg2"
   version="1.1"
   inkscape:version="0.91 r13725"
   sodipodi:docname="iconProj.svg">
  <defs
     id="defs4" />
  <sodipodi:namedview
     id="base"
     pagecolor="#ffffff"
     bordercolor="#666666"
     borderopacity="1.0"
     inkscape:pageopacity="0.0"
     inkscape:pageshadow="2"
     inkscape:zoom="2"
     inkscape:cx="515.42127"
     inkscape:cy="470.76339"
     inkscape:document-units="px"
     inkscape:current-layer="layer1"
     showgrid="false"
     inkscape:snap-bbox="false"
     inkscape:snap-bbox-midpoints="true"
     inkscape:snap-bbox-edge-midpoints="true"
     showguides="false"
     inkscape:bbox-nodes="true"
     inkscape:bbox-paths="true"
     inkscape:object-nodes="true"
     inkscape:window-width="1366"
     inkscape:window-height="716"
     inkscape:window-x="0"
     inkscape:window-y="25"
     inkscape:window-maximized="1"
     inkscape:snap-global="false" />
  <metadata
     id="metadata7">
    <rdf:RDF>
      <cc:Work
         rdf:about="">
        <dc:format>image/svg+xml</dc:format>
        <dc:type
           rdf:resource="http://purl.org/dc/dcmitype/StillImage" />
        <dc:title />
      </cc:Work>
    </rdf:RDF>
  </metadata>
  <g
     inkscape:label="Livello 1"
     inkscape:groupmode="layer"
     id="layer1">
    <g
       id="g4146"
       transform="translate(95.956948,464.41513)">
      <g
         id="g4808" />
      <title
         id="title4152">Layer 1</title>
    </g>
    <g
       transform="translate(681.34788,289.76184)"
       id="g4179">
      <g
         id="g4181"
         transform="translate(82.319896,421.13051)">
        <g
           id="g4183">
          <path
             id="path4185"
             d="m 502.97311,119.48692 c -50.12957,0.32943 -98.43835,15.73744 -147.64248,21.89833 -20.53678,2.57145 -41.70249,3.20232 -62.27368,0.81105 -27.35004,-3.17926 -53.8304,-11.62495 -81.16217,-15.40994 -24.42579,-3.38256 -49.15879,-6.91387 -73.73876,-7.05614 -42.954139,-0.24859 -84.499354,12.97554 -126.609593,20.11406 0,12.11305 -2.501713,27.65988 3.794145,36.17281 6.493884,8.78062 17.448819,16.81143 20.290582,28.71112 6.738998,28.21995 16.306194,55.88321 28.53867,82.40274 5.944611,12.88751 17.164986,21.87292 29.693382,28.06226 30.169784,14.90448 65.878874,17.09619 98.978364,12.40899 47.13487,-6.67468 72.70531,-41.45086 92.21464,-81.18602 7.30259,-16.15242 8.11704,-34.79361 17.73365,-49.55517 5.71188,-8.76802 18.97616,-5.07743 28.45599,-5.10959 9.47986,-0.0322 17.51386,15.47172 20.45563,25.79138 10.41177,36.52185 27.77212,75.2697 62.27395,94.40623 51.52222,28.57691 132.6904,23.23139 166.11838,-28.3056 13.08228,-20.16971 16.69617,-44.64303 23.25983,-67.47934 3.99585,-13.90228 7.56488,-30.47619 21.77527,-38.1194 5.73498,-3.08456 1.71039,-15.39313 2.55688,-22.54716 0.9223,-7.79581 2.70063,-14.68973 -8.57812,-16.22098 -19.67353,-2.67111 -38.75702,-10.79505 -58.89203,-13.54455 -19.08087,-2.60558 -37.77576,-6.373 -57.24252,-6.24508 z M 171.5612,132.46373 c 14.22962,-0.089 28.39949,0.93513 42.23069,3.8119 82.40803,17.14002 84.07435,50.52564 50.14897,119.5488 -27.64415,56.24332 -84.90891,70.33576 -142.61108,56.85449 -26.599059,-6.21426 -44.787627,-24.4718 -53.365828,-49.47399 -9.053566,-26.38787 -15.90205,-54.42482 -14.351807,-82.15935 2.076122,-37.14037 44.798431,-42.36008 75.388405,-45.74317 14.03691,-1.5525 28.3309,-2.74975 42.56065,-2.83868 z m 300.89379,0 c 14.22973,0.089 28.52371,1.28618 42.56057,2.83868 30.58997,3.38309 73.31244,8.6028 75.38825,45.74317 1.55048,27.73453 -5.2981,55.77148 -14.35175,82.15935 -8.57812,25.00219 -26.7669,43.25973 -53.36584,49.47399 -57.70209,13.48127 -114.96701,-0.61117 -142.61096,-56.85449 -33.92539,-69.02316 -32.25904,-102.40869 50.14895,-119.5488 13.83136,-2.87677 28.00092,-3.90087 42.23078,-3.8119 z"
             inkscape:connector-curvature="0"
             style="fill:#000000;stroke:#000000;stroke-width:1px" />
        </g>
        <title
           id="title4187">Layer 1</title>
      </g>
      <path
         style="opacity:1;fill:#000000;fill-opacity:1;stroke:none;stroke-opacity:1"
         d="m 203.88236,793.62358 c -3.69458,-0.052 -7.30808,0.54453 -10.46601,1.85483 -7.4128,3.07574 -11.92997,12.39168 -12.84246,20.36522 -2.35623,20.58944 4.60739,45.32934 20.4235,58.72065 38.12109,32.27668 95.27268,25.21283 147.71303,25.21283 26.0167,0 42.90856,-6.61771 53.32957,-16.7663 10.42096,10.1489 27.31239,16.7663 53.32956,16.7663 52.44035,0 109.5934,7.06385 147.71449,-25.21283 15.81611,-13.39131 22.77973,-38.13121 20.4235,-58.72065 -0.91249,-7.97354 -5.42966,-17.28948 -12.84246,-20.36522 -10.10537,-4.19296 -24.88227,-1.07914 -32.02018,7.21241 -3.43038,3.98481 -3.63815,11.10696 -1.13941,15.73324 2.30299,4.26387 12.70258,7.07253 12.70258,7.07253 0,0 -3.51271,-12.19037 -0.23168,-16.67887 2.95564,-4.04336 10.03516,-6.854 14.37819,-4.3595 4.77588,2.7431 3.9755,10.56721 3.82476,16.07274 -0.18896,6.90176 -1.08189,14.90398 -5.89085,19.85816 -4.98894,5.1396 -13.29989,7.59685 -20.40893,6.72139 -18.35069,-2.25986 -39.89245,-25.84075 -46.90251,-29.61313 -17.15491,-9.23172 -45.27181,-17.19322 -71.31687,-17.19322 -29.12306,0 -49.36978,4.80639 -61.62019,13.96147 -12.25046,-9.15487 -32.49602,-13.96147 -61.61874,-13.96147 -26.04506,0 -54.16196,7.9615 -71.31687,17.19322 -7.01006,3.77238 -28.55182,27.35327 -46.90251,29.61313 -7.10904,0.87546 -15.42145,-1.58179 -20.41038,-6.72139 -4.80896,-4.95418 -5.70045,-12.9564 -5.8894,-19.85816 -0.15074,-5.50553 -0.95112,-13.32964 3.82476,-16.07274 4.34303,-2.4945 11.42255,0.31614 14.37819,4.3595 3.28103,4.4885 -0.23168,16.67887 -0.23168,16.67887 0,0 10.39959,-2.80866 12.70258,-7.07253 2.49874,-4.62628 2.29097,-11.74843 -1.13941,-15.73324 -4.90731,-5.70045 -13.42608,-8.9529 -21.55417,-9.06724 z"
         id="path4189"
         inkscape:connector-curvature="0" />
    </g>
    <g
       id="g4323"
       inkscape:export-xdpi="2792.96"
       inkscape:export-ydpi="2792.96">
      <rect
         rx="14.964466"
         y="238.17924"
         x="254.55844"
         height="161.11932"
         width="161.11932"
         id="rect4136"
         style="opacity:1;fill:#d75333;fill-opacity:1;stroke:none;stroke-opacity:1" />
      <path
         sodipodi:nodetypes="ccccsscc"
         inkscape:connector-curvature="0"
         id="rect4138"
         d="m 386.56557,260.39747 0,116.68288 -102.89494,0 42.16879,22.21794 74.87343,0 c 8.29031,0 14.96484,-6.67453 14.96484,-14.96485 l 0,-91.56932 z"
         style="opacity:0.21199999;fill:#000000;fill-opacity:1;stroke:none;stroke-opacity:1" />
      <path
         inkscape:connector-curvature="0"
         id="rect4311"
         d="m 330.53337,264.84685 c -0.0362,1.53482 -0.87935,3.12297 -3.29712,5.00959 -7.64302,5.96406 -5.80712,29.21524 -11.06321,24.26237 -4.48315,-3.59827 -0.93065,-11.55333 -6.62355,-12.24837 -2.0591,-0.25139 -2.07795,3.17792 -4.07479,3.63803 -1.43561,0.33078 -3.02716,-1.52394 -4.3225,-0.94546 -2.86765,1.28067 0.96892,7.30505 -2.34633,7.41986 -6.15444,0.21308 0.20102,-13.29583 -5.95773,-13.41487 -5.09019,-0.0983 2.06901,8.82309 -4.31716,11.28426 l 0,60.29637 93.1744,0 0,-9.35073 c -0.70489,-0.012 -1.41078,-0.0266 -2.10664,-0.0266 -3.7995,0 -6.26819,-0.96807 -7.79005,-2.4502 -1.52186,1.48209 -3.98798,2.4502 -7.7874,2.4502 -7.65828,0 -16.00533,1.03299 -21.57246,-3.68063 -2.30974,-1.95564 -3.32429,-5.57156 -2.9802,-8.57839 0.13326,-1.16442 0.7924,-2.52303 1.87494,-2.97221 0.46118,-0.19129 0.98918,-0.27983 1.52872,-0.27165 1.18701,0.0167 2.43132,0.49116 3.14798,1.32365 0.50097,0.58193 0.53003,1.62279 0.16513,2.29839 -0.33633,0.62269 -1.85364,1.03336 -1.85364,1.03336 0,0 0.5111,-1.7814 0.032,-2.43689 -0.43164,-0.59048 -1.46441,-0.99815 -2.09865,-0.63387 -0.69746,0.40061 -0.58124,1.54234 -0.55929,2.34635 0.0276,1.00791 0.15795,2.1768 0.86024,2.90029 0.72856,0.75058 1.942,1.10786 2.98018,0.98009 2.67991,-0.33003 5.82618,-3.77159 6.84993,-4.32248 2.50526,-1.34819 6.60982,-2.51147 10.41338,-2.51147 4.25303,0 7.21014,0.70045 8.99918,2.0374 1.78902,-1.33698 4.74612,-2.0374 8.99918,-2.0374 0.29644,0 0.59829,0.0312 0.89751,0.0453 l 0,-13.04467 c -2.58331,-2.96112 -4.1578,-6.8606 -5.22533,-10.60514 -0.4296,-1.50707 -1.60377,-3.77131 -2.98817,-3.76585 -1.38443,0.005 -3.32057,-0.53742 -4.15471,0.74305 -1.40439,2.15575 -1.52223,4.87989 -2.58869,7.23876 -2.84911,5.80283 -6.58203,10.88211 -13.46548,11.85686 -4.83379,0.6845 -10.05027,0.36295 -14.45621,-1.81369 -1.82962,-0.90387 -3.46766,-2.21402 -4.33581,-4.09609 -1.7864,-3.87285 -3.18385,-7.91412 -4.16801,-12.03531 -0.41501,-1.73781 -2.01587,-2.91234 -2.96422,-4.19464 -0.91943,-1.24323 -0.55396,-3.5123 -0.55396,-5.28126 6.1497,-1.04251 12.21814,-2.97386 18.49107,-2.93759 3.58959,0.0208 7.20052,0.5367 10.7676,1.03068 3.99148,0.55275 7.85739,1.78883 11.85153,2.25312 3.00417,0.34927 6.09857,0.25569 9.09773,-0.11984 1.57006,-0.19659 3.13095,-0.46714 4.69266,-0.75636 l 0,-25.91625 -51.17201,0 z m 19.63893,25.36761 c -2.07809,0.013 -4.16614,0.18875 -6.21606,0.41547 -4.46729,0.49406 -10.70409,1.25558 -11.00729,6.67948 -0.22638,4.05029 0.77383,8.1444 2.09599,11.99802 1.25275,3.65125 3.90828,6.31791 7.79273,7.22543 8.4267,1.96877 16.78966,-0.0878 20.82674,-8.3014 4.9544,-10.07998 4.71071,-14.95462 -7.32398,-17.45771 -2.01986,-0.42011 -4.09008,-0.57293 -6.16813,-0.55929 z m 31.53308,2.56473 c -5.63714,2.87138 -4.95573,7.56948 -1.08129,15.45227 0.3308,0.67303 0.69424,1.30016 1.08129,1.89092 l 0,-17.34319 z"
         style="opacity:0.25;fill:#ffff00;fill-opacity:1;stroke:none;stroke-opacity:1" />
      <path
         inkscape:connector-curvature="0"
         id="rect4278"
         d="m 283.67063,260.39747 0,27.73987 0,66.26866 0,0.19164 0,22.48271 102.89494,0 0,-22.48271 0,-0.19164 0,-94.00853 -57.49093,0 -45.40401,0 z m 46.864,4.44913 51.17088,0 0,25.91635 c -1.56171,0.28922 -3.12404,0.56008 -4.6941,0.75667 -2.99916,0.37553 -6.09165,0.46777 -9.09582,0.1185 -3.99414,-0.46429 -7.86035,-1.69948 -11.85183,-2.25222 -3.56708,-0.49399 -7.17958,-1.00853 -10.76917,-1.0293 -6.27293,-0.0363 -12.34027,1.89525 -18.48996,2.93776 0,1.76896 -0.36427,4.03766 0.55516,5.28088 0.94835,1.28229 2.54843,2.45644 2.96344,4.19426 0.98416,4.12118 2.38022,8.16073 4.16662,12.03358 0.86815,1.88207 2.5069,3.19359 4.33651,4.09746 4.40595,2.17662 9.62192,2.49813 14.45571,1.81363 6.88346,-0.97475 10.61681,-6.05491 13.46591,-11.85774 1.06647,-2.35887 1.18568,-5.08101 2.59007,-7.23675 0.83413,-1.28047 2.77033,-0.74012 4.15475,-0.74483 1.38441,-0.005 2.55755,2.2585 2.98715,3.76557 1.06753,3.74453 2.64224,7.64408 5.22556,10.6052 l 0,13.04511 c -0.29923,-0.014 -0.6005,-0.0454 -0.89695,-0.0454 -4.25306,0 -7.20998,0.70187 -8.999,2.03885 -1.78904,-1.33695 -4.74599,-2.03885 -8.99902,-2.03885 -3.80355,0 -7.90829,1.16285 -10.41355,2.51103 -1.02375,0.55089 -4.16962,3.99463 -6.84952,4.32467 -1.03818,0.12776 -2.25267,-0.23132 -2.98124,-0.9819 -0.70229,-0.7235 -0.8318,-1.89231 -0.8594,-2.90023 -0.022,-0.80401 -0.14033,-1.94644 0.55714,-2.34705 0.63424,-0.36429 1.66845,0.0457 2.10009,0.63615 0.47914,0.6555 -0.0335,2.43597 -0.0335,2.43597 0,0 1.5188,-0.41058 1.85513,-1.03327 0.36491,-0.6756 0.335,-1.71572 -0.16597,-2.29765 -0.71666,-0.83249 -1.96016,-1.30699 -3.14717,-1.32368 -0.53955,-0.008 -1.06796,0.0794 -1.52915,0.27066 -1.08254,0.44918 -1.74162,1.8089 -1.87488,2.97333 -0.34409,3.00683 0.6715,6.62058 2.98124,8.57622 5.56712,4.71361 13.91366,3.68259 21.57194,3.68259 3.79942,0 6.26609,-0.96771 7.78794,-2.44979 1.52186,1.48213 3.98845,2.44979 7.78796,2.44979 0.69585,0 1.40309,0.0136 2.10799,0.0256 l 0,9.35067 -93.17481,0 0,-60.29632 c 6.38616,-2.46118 -0.77147,-11.38317 4.31873,-11.28482 6.15874,0.11904 -0.1979,13.62762 5.95654,13.41455 3.31525,-0.11482 -0.52061,-6.13782 2.34704,-7.41849 1.29533,-0.57848 2.88708,1.2771 4.32268,0.94632 1.99685,-0.46011 2.01466,-3.89051 4.07376,-3.63912 5.6929,0.69504 2.14115,8.64868 6.6243,12.24694 5.25609,4.95287 3.41855,-18.29672 11.06157,-24.26077 2.41777,-1.88663 3.26311,-3.47538 3.29931,-5.0102 z m 19.63779,25.36911 c 2.07805,-0.0136 4.14807,0.13702 6.16793,0.55713 12.03469,2.50309 12.27806,7.37868 7.32366,17.45866 -4.03708,8.21364 -12.40041,10.27039 -20.82712,8.30162 -3.88445,-0.90752 -6.53915,-3.57365 -7.79189,-7.2249 -1.32217,-3.85362 -2.32253,-7.94773 -2.09614,-11.99802 0.30319,-5.4239 6.54093,-6.18556 11.00823,-6.67961 2.04991,-0.22673 4.13725,-0.4019 6.21533,-0.41488 z m 31.53309,2.56436 0,17.34211 c -0.38706,-0.59077 -0.74988,-1.21765 -1.08068,-1.89068 -3.87444,-7.88279 -4.55647,-12.58004 1.08068,-15.45143 z"
         style="opacity:0.75099996;fill:#000000;fill-opacity:1;stroke:none;stroke-opacity:1" />
    </g>
    <g
       id="g4316"
       transform="translate(-201.90276,286.77818)">
      <path
         inkscape:connector-curvature="0"
         id="rect4269"
         d="m 492.90112,277.18971 c 0.99208,2.39506 1.0498,4.59217 -2.68164,7.5039 -7.55595,5.89612 -5.73934,28.88277 -10.93555,23.98633 -4.43208,-3.55728 -0.92081,-11.42226 -6.54883,-12.10937 -2.03566,-0.24853 -2.05325,3.14475 -4.02734,3.59961 -1.41925,0.32702 -2.99482,-1.50743 -4.27539,-0.93555 -2.83498,1.26608 0.95912,7.22051 -2.31836,7.33398 -6.08431,0.21065 0.19795,-13.14408 -5.89062,-13.26171 -5.43085,-0.10493 3.25436,10.18206 -6.02343,11.61132 -0.36382,4.8e-4 -0.69398,-0.0554 -0.99805,-0.1582 l 0,56.75977 114.04882,0 0,-11.16992 c -1.25439,-0.025 -2.5038,-0.0469 -3.73828,-0.0469 -4.49493,0 -7.41445,-1.14308 -9.21485,-2.89648 -1.80041,1.75335 -4.71805,2.89648 -9.21289,2.89648 -9.05999,0 -18.93344,1.2209 -25.51953,-4.35547 -2.73251,-2.31358 -3.93638,-6.58929 -3.5293,-10.14648 0.15765,-1.37757 0.93806,-2.98619 2.21875,-3.51758 0.54559,-0.22637 1.17029,-0.32931 1.8086,-0.32031 1.40427,0.0198 2.87679,0.58155 3.72461,1.5664 0.59266,0.68845 0.62702,1.91948 0.19531,2.71875 -0.39788,0.73666 -2.19336,1.22071 -2.19336,1.22071 0,0 0.60591,-2.10539 0.0391,-2.88086 -0.51064,-0.69856 -1.73403,-1.18488 -2.48437,-0.75391 -0.82512,0.47392 -0.68616,1.82616 -0.66016,2.77734 0.0327,1.1924 0.18675,2.57571 1.01758,3.43164 0.86193,0.88795 2.29718,1.31141 3.52539,1.16016 3.17041,-0.39043 6.8924,-4.46545 8.10352,-5.11719 2.96381,-1.59494 7.82252,-2.96875 12.32226,-2.96875 5.03146,0 8.52804,0.83045 10.64453,2.41211 2.11647,-1.5817 5.61497,-2.41211 10.64649,-2.41211 0.76237,0 1.53466,0.0418 2.30664,0.11524 l 0,-14.1836 c -3.81646,-3.60602 -6.00088,-8.85239 -7.42774,-13.85742 -0.50824,-1.78291 -1.89539,-4.46108 -3.5332,-4.45508 -1.63781,0.006 -3.92919,-0.63201 -4.91602,0.88282 -1.66143,2.55032 -1.8028,5.76992 -3.06445,8.56054 -3.37058,6.86495 -7.78827,12.87418 -15.93164,14.02735 -5.71852,0.80979 -11.88725,0.43048 -17.09961,-2.14453 -2.1645,-1.06932 -4.10382,-2.62111 -5.13086,-4.84766 -2.11337,-4.58171 -3.7654,-9.36083 -4.92968,-14.23633 -0.49097,-2.05588 -2.38393,-3.44394 -3.50586,-4.96094 -1.08772,-1.47076 -0.65625,-4.15726 -0.65625,-6.25 7.27529,-1.23331 14.45392,-3.51761 21.875,-3.47461 4.24662,0.0246 8.5183,0.63435 12.73828,1.21875 4.72205,0.65392 9.29823,2.11284 14.02343,2.66211 3.55404,0.41314 7.20973,0.30559 10.75782,-0.13867 2.27503,-0.28486 4.53892,-0.68778 6.80078,-1.12109 l 0,-13.72461 -70.34961,0 z m 31.80078,13.30273 c -2.45844,0.0154 -4.9284,0.22397 -7.35352,0.49219 -5.28496,0.58449 -12.6667,1.48569 -13.02539,7.90234 -0.26783,4.79163 0.91631,9.63439 2.48047,14.19336 1.48204,4.31956 4.6233,7.47521 9.21875,8.54883 9.96907,2.32913 19.86266,-0.10524 24.63867,-9.82226 5.86121,-11.92496 5.57338,-17.69306 -8.66406,-20.6543 -2.38958,-0.49701 -4.83651,-0.67556 -7.29492,-0.66016 z m 38.54883,2.45508 c -8.00852,3.33331 -7.37887,8.9847 -2.52539,18.85938 0.72813,1.48143 1.57711,2.78974 2.52539,3.9414 l 0,-22.80078 z"
         style="opacity:0.28300003;fill:#ffff00;fill-opacity:1;stroke:none;stroke-opacity:1" />
      <g
         id="g4293"
         style="opacity:0.75099996;fill:#000000"
         transform="matrix(0.20306374,0,0,0.20306374,464.17569,162.68313)">
        <path
           id="path4295"
           d="m -103.03516,542.23438 0,458.60942 620.23243,0 0,-458.60942 -620.23243,0 z m 29.294926,21.6621 561.644534,0 0,415.28711 -561.644534,0 0,-415.28711 z"
           style="opacity:1;fill:#000000;fill-opacity:1;stroke:none;stroke-opacity:1"
           inkscape:connector-curvature="0" />
        <path
           inkscape:connector-curvature="0"
           style="opacity:1;fill:#000000;fill-opacity:1;stroke:none;stroke-opacity:1"
           d="m 269.64134,618.57694 c -36.54558,-0.2115 -71.89227,11.04064 -107.71985,17.11414 0,10.30583 -2.12947,23.53236 3.22708,30.7752 5.52502,7.47059 14.84591,14.30307 17.2637,24.42739 5.73356,24.00967 13.87371,47.54701 24.28116,70.10996 5.0577,10.96475 14.60403,18.60812 25.26325,23.87405 25.66859,12.68079 56.05017,14.5465 84.21137,10.55861 40.10257,-5.67885 61.85819,-35.26618 78.45682,-69.07303 6.21308,-13.74256 6.90497,-29.60382 15.08683,-42.16303 4.85969,-7.45986 16.14589,-4.31971 24.21137,-4.34708 8.06551,-0.0274 14.9004,13.16311 17.40327,21.94312 7.02663,24.64762 17.78354,50.47749 36.57796,68.23553 l 0,-16.2517 c -4.66988,-5.67141 -8.85231,-12.11693 -12.43803,-19.4123 -23.90127,-48.62849 -27.00041,-76.45723 12.43803,-92.87231 l 0,-10.01191 c -11.13868,2.13386 -22.28693,4.11579 -33.49047,5.5186 -17.47278,2.1878 -35.48046,2.72412 -52.98253,0.68961 -23.26954,-2.70493 -45.79909,-9.89074 -69.05309,-13.11103 -20.78158,-2.87789 -41.82411,-5.88278 -62.73687,-6.00382 z m 28.42053,10.83447 c 12.10662,-0.0757 24.16222,0.79611 35.92988,3.24369 70.11312,14.5828 71.53205,42.98747 42.66817,101.7127 -23.51976,47.85207 -72.24109,59.84116 -121.33437,48.37122 -22.6306,-5.28711 -38.10667,-20.82124 -45.40504,-42.09321 -7.70283,-22.45093 -13.52933,-46.30392 -12.21038,-69.90059 1.76638,-31.5992 38.11493,-36.04098 64.14103,-38.91932 11.94267,-1.32088 24.10397,-2.33883 36.21071,-2.41449 z M 255.5233,833.62944 c -3.14336,-0.0442 -6.21842,0.46383 -8.90521,1.57864 -6.30684,2.61686 -10.1495,10.54291 -10.92585,17.32684 -2.0047,17.51759 3.92027,38.56645 17.37669,49.95984 32.4336,27.46115 81.05831,21.45125 125.6748,21.45125 22.13513,0 36.50724,-5.63146 45.37348,-14.26593 8.8662,8.63473 23.23629,14.26593 45.37182,14.26593 6.07926,0 12.23794,0.11279 18.41527,0.23596 l 0,-84.30277 c -3.80165,-0.36166 -7.60688,-0.56664 -11.36124,-0.56664 -24.77803,0 -42.00314,4.09051 -52.42585,11.87969 -10.42275,-7.78901 -27.6481,-11.87969 -52.42584,-11.87969 -22.15926,0 -46.08086,6.77379 -60.67634,14.62818 -5.96419,3.20955 -24.29353,23.27242 -39.90639,25.19512 -6.0484,0.74485 -13.12045,-1.34521 -17.36505,-5.71801 -4.09148,-4.21504 -4.84935,-11.02274 -5.01011,-16.89478 -0.12825,-4.68413 -0.80968,-11.34218 3.25367,-13.67602 3.69506,-2.12234 9.71895,0.26886 12.23363,3.70897 2.79151,3.81884 -0.19774,14.19116 -0.19774,14.19115 0,0 8.84848,-2.38939 10.80787,-6.01711 2.12595,-3.93606 1.9498,-9.99659 -0.96878,-13.38689 -4.17515,-4.84996 -11.42342,-7.61644 -18.33883,-7.71373 z"
           id="path4297" />
        <path
           inkscape:connector-curvature="0"
           id="path4299"
           d="m -83.840974,554.80479 0,135.05029 c 3.31287,6.39683 7.951587,10.60162 15.019802,10.59245 45.689086,-7.03844 2.917903,-57.69621 29.662502,-57.17947 29.9835889,0.57931 -0.961125,66.34548 29.001452,65.30814 16.1401822,-0.5588 -2.534815,-29.88152 11.4262331,-36.1164 6.3062541,-2.81629 14.0620269,6.21586 21.0512399,4.60542 9.721511,-2.23998 9.802046,-18.94752 19.826757,-17.72363 27.715515,3.38371 10.425163,42.11285 32.251197,59.63088 25.58908,24.11283 16.645021,-89.08399 53.854791,-118.11969 22.97516,-17.92811 16.90474,-30.32309 8.9551,-46.04799 l -221.049074,0 z"
           style="opacity:1;fill:#000000;fill-opacity:1;stroke:none;stroke-opacity:1" />
      </g>
    </g>
    <g
       id="g4306"
       transform="translate(48.78469,-90.57435)">
      <path
         inkscape:connector-curvature="0"
         style="opacity:1;fill:#000000;fill-opacity:1;stroke:none;stroke-opacity:1"
         d="m 486.07815,427.93341 0,93.12695 125.94671,0 0,-93.12695 -125.94671,0 z m 5.94873,4.39879 114.04964,0 0,84.32975 -114.04964,0 0,-84.32975 z"
         id="path4308" />
      <path
         id="path4310"
         d="m 562.10878,443.43582 c -7.42108,-0.0429 -14.59871,2.24195 -21.874,3.47526 0,2.09274 -0.43241,4.77857 0.65531,6.24933 1.12193,1.517 3.01466,2.90443 3.50563,4.96031 1.16428,4.8755 2.81725,9.65508 4.93062,14.23679 1.02704,2.22655 2.96555,3.77864 5.13005,4.84796 5.21236,2.57501 11.38176,2.95386 17.10028,2.14407 8.14337,-1.15317 12.56115,-7.16128 15.93173,-14.02623 1.26165,-2.79062 1.40215,-6.01146 3.06359,-8.56178 0.98683,-1.51483 3.27864,-0.87718 4.91645,-0.88274 1.63781,-0.006 3.02573,2.67295 3.53397,4.45586 1.42686,5.00503 3.6112,10.25014 7.42766,13.85616 l 0,-3.30013 c -0.94828,-1.15166 -1.79758,-2.46051 -2.52571,-3.94194 -4.85348,-9.87468 -5.48281,-15.52569 2.52571,-18.859 l 0,-2.03305 c -2.26186,0.43331 -4.52567,0.83577 -6.8007,1.12063 -3.54809,0.44426 -7.20479,0.55317 -10.75883,0.14003 -4.7252,-0.54927 -9.30013,-2.00845 -14.02218,-2.66237 -4.21998,-0.5844 -8.49296,-1.19458 -12.73958,-1.21916 z m 5.77118,2.20008 c 2.45841,-0.0154 4.90647,0.16167 7.29605,0.65868 14.23744,2.96124 14.52557,8.7292 8.66436,20.65416 -4.77601,9.71702 -14.66954,12.15157 -24.63861,9.82244 -4.59545,-1.07362 -7.73808,-4.22804 -9.22012,-8.5476 -1.56416,-4.55897 -2.74731,-9.40265 -2.47948,-14.19428 0.35869,-6.41665 7.73976,-7.31861 13.02472,-7.9031 2.42512,-0.26822 4.89464,-0.47493 7.35308,-0.4903 z m -8.63804,41.46928 c -0.63831,-0.009 -1.26274,0.0942 -1.80833,0.32057 -1.28069,0.53139 -2.06099,2.14088 -2.21864,3.51845 -0.40708,3.55719 0.79606,7.83145 3.52857,10.14503 6.58609,5.57637 16.46001,4.35597 25.52,4.35597 4.49484,0 7.4133,-1.14354 9.21371,-2.89689 1.8004,1.7534 4.71844,2.89689 9.21337,2.89689 1.23448,0 2.48508,0.0229 3.73947,0.0479 l 0,-17.11884 c -0.77198,-0.0734 -1.54468,-0.11506 -2.30705,-0.11506 -5.03152,0 -8.52932,0.83063 -10.64579,2.41233 -2.11649,-1.58166 -5.61433,-2.41233 -10.64579,-2.41233 -4.49974,0 -9.35735,1.37551 -12.32116,2.97045 -1.21112,0.65174 -4.93314,4.72579 -8.10355,5.11622 -1.22821,0.15125 -2.66428,-0.27317 -3.52621,-1.16112 -0.83083,-0.85593 -0.98472,-2.23832 -1.01737,-3.43072 -0.026,-0.95118 -0.16442,-2.30319 0.6607,-2.77711 0.75034,-0.43097 1.97357,0.0546 2.48421,0.75316 0.56685,0.77547 -0.0401,2.88171 -0.0401,2.88171 0,0 1.7968,-0.4852 2.19468,-1.22186 0.43171,-0.79927 0.39594,-2.02994 -0.19672,-2.71839 -0.84782,-0.98485 -2.31968,-1.54662 -3.72395,-1.56638 z"
         style="opacity:1;fill:#000000;fill-opacity:1;stroke:none;stroke-opacity:1"
         inkscape:connector-curvature="0" />
      <path
         style="opacity:1;fill:#000000;fill-opacity:1;stroke:none;stroke-opacity:1"
         d="m 489.97579,430.48601 0,27.42381 c 0.67272,1.29897 1.61468,2.15281 3.04998,2.15095 9.27779,-1.42926 0.59252,-11.71601 6.02337,-11.61108 6.08858,0.11763 -0.19517,13.47236 5.88915,13.26171 3.27748,-0.11347 -0.51473,-6.06785 2.32025,-7.33393 1.28057,-0.57188 2.85549,1.26222 4.27474,0.9352 1.97409,-0.45486 1.99044,-3.84756 4.0261,-3.59903 5.62802,0.68711 2.11697,8.55159 6.54905,12.10887 5.19621,4.89644 3.38,-18.08973 10.93595,-23.98583 4.66543,-3.64055 3.43274,-6.15752 1.81846,-9.35067 l -44.88705,0 z"
         id="path4312"
         inkscape:connector-curvature="0" />
    </g>
    <g
       id="g4332"
       inkscape:export-filename="/home/gabmus/Scrivania/iconplus"
       inkscape:export-xdpi="1281.09"
       inkscape:export-ydpi="1281.09">
      <path
         id="path4287"
         d="M 481.07812 503.93359 L 481.07812 569.26172 L 487.02734 569.26172 L 487.02734 535.90234 C 487.33142 536.00515 487.66157 536.06102 488.02539 536.06055 C 497.30318 534.63129 488.61798 524.34429 494.04883 524.44922 C 500.13741 524.56685 493.85318 537.92159 499.9375 537.71094 C 503.21498 537.59747 499.42283 531.64303 502.25781 530.37695 C 503.53838 529.80507 505.11395 531.63952 506.5332 531.3125 C 508.50729 530.85764 508.52293 527.46436 510.55859 527.71289 C 516.18661 528.4 512.67729 536.26499 517.10938 539.82227 C 522.30557 544.71871 520.48897 521.73204 528.04492 515.83594 C 531.77636 512.9242 531.71865 510.72709 530.72656 508.33203 L 601.07617 508.33203 L 601.07617 522.12109 C 598.9319 522.52857 596.78545 522.90771 594.62891 523.17773 C 591.08082 523.62199 587.42513 523.72955 583.87109 523.31641 C 579.14589 522.76714 574.56971 521.30822 569.84766 520.6543 C 565.62768 520.0699 561.35599 519.46013 557.10938 519.43555 C 549.6883 519.39265 542.50967 521.67685 535.23438 522.91016 C 535.23438 525.0029 534.80291 527.6894 535.89062 529.16016 C 537.01256 530.67716 538.90551 532.06521 539.39648 534.12109 C 540.56076 538.99659 542.2128 543.77571 544.32617 548.35742 C 545.35321 550.58397 547.29253 552.13576 549.45703 553.20508 C 554.66939 555.78009 560.83812 556.1594 566.55664 555.34961 C 574.70001 554.19644 579.1177 548.18917 582.48828 541.32422 C 583.74993 538.5336 583.89129 535.31204 585.55273 532.76172 C 586.53956 531.24689 588.83094 531.88447 590.46875 531.87891 C 592.10656 531.87291 593.49371 534.55107 594.00195 536.33398 C 595.38366 541.18063 597.47966 546.2493 601.07617 549.83984 L 601.07617 564.34961 C 600.42222 564.29584 599.76889 564.25977 599.12305 564.25977 C 594.09153 564.25977 590.59303 565.09017 588.47656 566.67188 C 586.36007 565.0902 582.86349 564.25977 577.83203 564.25977 C 573.33229 564.25977 568.47358 565.63553 565.50977 567.23047 C 564.29865 567.88221 560.57666 571.95527 557.40625 572.3457 C 556.17804 572.49695 554.74279 572.0735 553.88086 571.18555 C 553.05003 570.32962 552.89593 568.94631 552.86328 567.75391 C 552.83728 566.80273 552.69832 565.45048 553.52344 564.97656 C 554.27378 564.54559 555.49717 565.03191 556.00781 565.73047 C 556.57466 566.50594 555.96875 568.61133 555.96875 568.61133 C 555.96875 568.61133 557.76423 568.1273 558.16211 567.39062 C 558.59382 566.59136 558.55946 565.36032 557.9668 564.67188 C 557.11898 563.68701 555.64646 563.12523 554.24219 563.10547 C 553.60388 563.09647 552.97918 563.19941 552.43359 563.42578 C 551.1529 563.95717 550.37249 565.56579 550.21484 566.94336 C 549.80776 570.50055 551.01163 574.77626 553.74414 577.08984 C 560.33023 582.66621 570.20368 581.44531 579.26367 581.44531 C 583.75851 581.44531 586.67615 580.30218 588.47656 578.54883 C 590.27696 580.30223 593.19648 581.44531 597.69141 581.44531 C 598.80915 581.44531 599.94115 581.46617 601.07617 581.48828 L 601.07617 592.66211 L 507.14258 592.66211 L 507.14258 597.06055 L 607.02539 597.06055 L 607.02539 503.93359 L 481.07812 503.93359 z M 562.88086 521.63672 C 565.33927 521.62132 567.7862 521.79791 570.17578 522.29492 C 584.41322 525.25616 584.70105 531.02426 578.83984 542.94922 C 574.06383 552.66624 564.17024 555.10061 554.20117 552.77148 C 549.60572 551.69786 546.46446 548.54222 544.98242 544.22266 C 543.41826 539.66369 542.23412 534.82093 542.50195 530.0293 C 542.86064 523.61265 550.24238 522.71144 555.52734 522.12695 C 557.95246 521.85873 560.42242 521.65209 562.88086 521.63672 z M 601.07617 524.25391 L 601.07617 546.43359 C 600.27162 545.39398 599.53927 544.24111 598.9043 542.94922 C 594.12734 533.23023 593.46093 527.60706 601.07617 524.25391 z M 481.07812 584.05859 L 481.07812 597.06055 L 492.5 597.06055 L 492.5 592.66211 L 487.02734 592.66211 L 487.02734 584.05859 L 481.07812 584.05859 z "
         style="opacity:1;fill:#000000;fill-opacity:1;stroke:none;stroke-opacity:1" />
      <path
         inkscape:connector-curvature="0"
         id="rect4314"
         d="m 494.70511,543.00449 0,28.48456 -28.18533,0 0,10.34154 28.18533,0 0,28.48456 10.2329,0 0,-28.48456 28.18532,0 0,-10.34154 -28.18532,0 0,-28.48456 -10.2329,0 z"
         style="opacity:1;fill:#000000;fill-opacity:1;stroke:none;stroke-width:2;stroke-miterlimit:4;stroke-dasharray:none;stroke-opacity:1" />
    </g>
  </g>
</svg>
